# xmcd CD database file
#
# Track frame offsets:
#	150
#	20080
#	41500
#	57930
#	82330
#	113280
#	134235
#	142170
#	165557
#	184860
#
# Disc length: 2653 seconds
#
# Revision: 0
# Processed by: cddbd v1.5.2PL0 Copyright (c) Steve Scherf et al.
# Submitted via: CDex 1.70beta2
#
DISCID=910a5b0a
DTITLE=Stan Samole - Gliding
DYEAR=1991
DGENRE=Jazz
TTITLE0=See Sea
TTITLE1=Knuckles
TTITLE2=Friends
TTITLE3=Sweet Dreams
TTITLE4=Orient'e
TTITLE5=Gliding
TTITLE6=Prelude
TTITLE7=Men in White
TTITLE8=Leon
TTITLE9=Tai Chi
EXTD=YEAR: 1991
EXTT0=
EXTT1=
EXTT2=
EXTT3=
EXTT4=
EXTT5=
EXTT6=
EXTT7=
EXTT8=
EXTT9=
PLAYORDER=
